
        <svg data-logo="logo" xmlns="http://www.w3.org/2000/svg" viewBox="0 0 188 43">
          <g id="logogram" transform="translate(0, 1.5) rotate(0)"><path fill-rule="evenodd" clip-rule="evenodd" d="M0 15V31H5C5.52527 31 6.04541 31.1035 6.53076 31.3045C7.01599 31.5055 7.45703 31.8001 7.82837 32.1716C8.19983 32.543 8.49451 32.984 8.69556 33.4693C8.89648 33.9546 9 34.4747 9 35V40H21L36 25V9H31C30.4747 9 29.9546 8.89655 29.4692 8.69553C28.984 8.49451 28.543 8.19986 28.1716 7.82843C27.8002 7.457 27.5055 7.01602 27.3044 6.53073C27.1035 6.04544 27 5.5253 27 5V0H15L0 15ZM17 30H10V19L19 10H26V21L17 30Z" fill="#0004E8"/></g>
          <g id="logotype" transform="translate(42, 0)"><path fill="#000000" d="M17.64 35.38L17.64 35.38Q14.58 35.38 12.31 34.44Q10.05 33.50 8.79 31.65Q7.52 29.80 7.45 27.10L7.45 27.10L12.53 27.10Q12.63 28.39 13.30 29.25Q13.96 30.11 15.07 30.54Q16.19 30.97 17.59 30.97L17.59 30.97Q18.99 30.97 20.02 30.57Q21.06 30.16 21.64 29.43Q22.22 28.69 22.22 27.72L22.22 27.72Q22.22 26.85 21.70 26.26Q21.18 25.67 20.20 25.24Q19.23 24.81 17.83 24.49L17.83 24.49L15.02 23.79Q11.79 23.00 9.96 21.32Q8.14 19.64 8.14 16.87L8.14 16.87Q8.14 14.56 9.38 12.83Q10.61 11.11 12.78 10.15Q14.94 9.19 17.71 9.19L17.71 9.19Q20.53 9.19 22.63 10.16Q24.73 11.13 25.91 12.84Q27.09 14.56 27.12 16.80L27.12 16.80L22.08 16.80Q21.94 15.26 20.77 14.42Q19.60 13.59 17.66 13.59L17.66 13.59Q16.34 13.59 15.40 13.96Q14.46 14.34 13.96 15.00Q13.47 15.67 13.47 16.53L13.47 16.53Q13.47 17.47 14.04 18.09Q14.61 18.71 15.54 19.10Q16.48 19.48 17.55 19.74L17.55 19.74L19.86 20.30Q21.47 20.66 22.85 21.28Q24.23 21.89 25.28 22.79Q26.32 23.69 26.89 24.92Q27.46 26.15 27.46 27.75L27.46 27.75Q27.46 30.06 26.30 31.78Q25.14 33.50 22.94 34.44Q20.73 35.38 17.64 35.38ZM35.41 35.24L35.41 35.24Q33.43 35.24 31.94 34.38Q30.45 33.51 29.64 31.90Q28.83 30.28 28.83 28.04L28.83 28.04L28.83 15.89L33.96 15.89L33.96 27.16Q33.96 28.93 34.88 29.94Q35.80 30.95 37.41 30.95L37.41 30.95Q38.50 30.95 39.34 30.48Q40.18 30.01 40.65 29.11Q41.12 28.22 41.12 26.95L41.12 26.95L41.12 15.89L46.24 15.89L46.24 35L41.41 35L41.34 30.23L41.63 30.23Q40.88 32.64 39.33 33.94Q37.79 35.24 35.41 35.24ZM59.04 35.32L59.04 35.32Q57.49 35.32 56.41 34.79Q55.33 34.27 54.66 33.49Q53.98 32.71 53.63 31.94L53.63 31.94L53.39 31.94L53.39 35L48.34 35L48.34 9.54L53.47 9.54L53.47 19.11L53.63 19.11Q53.98 18.35 54.64 17.55Q55.30 16.75 56.38 16.20Q57.45 15.65 59.08 15.65L59.08 15.65Q61.20 15.65 62.96 16.75Q64.72 17.84 65.77 20.03Q66.82 22.22 66.82 25.48L66.82 25.48Q66.82 28.66 65.79 30.86Q64.77 33.05 63.01 34.19Q61.25 35.32 59.04 35.32ZM57.47 31.21L57.47 31.21Q58.80 31.21 59.72 30.47Q60.63 29.74 61.10 28.44Q61.57 27.14 61.57 25.46L61.57 25.46Q61.57 23.79 61.10 22.51Q60.63 21.23 59.73 20.49Q58.82 19.76 57.47 19.76L57.47 19.76Q56.15 19.76 55.23 20.47Q54.31 21.17 53.83 22.45Q53.35 23.72 53.35 25.46L53.35 25.46Q53.35 27.19 53.84 28.48Q54.33 29.77 55.25 30.49Q56.17 31.21 57.47 31.21ZM77.58 35.38L77.58 35.38Q74.52 35.38 72.26 34.44Q70.00 33.50 68.73 31.65Q67.47 29.80 67.40 27.10L67.40 27.10L72.47 27.10Q72.58 28.39 73.24 29.25Q73.91 30.11 75.02 30.54Q76.13 30.97 77.53 30.97L77.53 30.97Q78.93 30.97 79.97 30.57Q81.00 30.16 81.58 29.43Q82.16 28.69 82.16 27.72L82.16 27.72Q82.16 26.85 81.64 26.26Q81.12 25.67 80.15 25.24Q79.17 24.81 77.77 24.49L77.77 24.49L74.97 23.79Q71.74 23.00 69.91 21.32Q68.08 19.64 68.08 16.87L68.08 16.87Q68.08 14.56 69.32 12.83Q70.56 11.11 72.72 10.15Q74.88 9.19 77.65 9.19L77.65 9.19Q80.47 9.19 82.57 10.16Q84.68 11.13 85.85 12.84Q87.03 14.56 87.07 16.80L87.07 16.80L82.03 16.80Q81.89 15.26 80.72 14.42Q79.55 13.59 77.60 13.59L77.60 13.59Q76.28 13.59 75.34 13.96Q74.40 14.34 73.91 15.00Q73.41 15.67 73.41 16.53L73.41 16.53Q73.41 17.47 73.99 18.09Q74.56 18.71 75.49 19.10Q76.42 19.48 77.50 19.74L77.50 19.74L79.80 20.30Q81.41 20.66 82.80 21.28Q84.18 21.89 85.22 22.79Q86.26 23.69 86.84 24.92Q87.41 26.15 87.41 27.75L87.41 27.75Q87.41 30.06 86.25 31.78Q85.09 33.50 82.88 34.44Q80.68 35.38 77.58 35.38ZM93.90 35L88.77 35L88.77 15.89L93.90 15.89L93.90 35ZM91.34 13.40L91.34 13.40Q90.18 13.40 89.36 12.63Q88.54 11.86 88.54 10.77L88.54 10.77Q88.54 9.67 89.36 8.90Q90.18 8.13 91.34 8.13L91.34 8.13Q92.50 8.13 93.33 8.90Q94.16 9.66 94.16 10.77L94.16 10.77Q94.16 11.86 93.33 12.63Q92.50 13.40 91.34 13.40ZM104.46 42.55L104.46 42.55Q102.09 42.55 100.31 41.95Q98.53 41.34 97.42 40.28Q96.31 39.22 95.88 37.87L95.88 37.87L100.29 36.64Q100.53 37.17 101.03 37.67Q101.54 38.18 102.38 38.50Q103.21 38.83 104.44 38.83L104.44 38.83Q106.41 38.83 107.53 37.93Q108.65 37.03 108.65 35.14L108.65 35.14L108.65 31.62L108.26 31.62Q107.91 32.39 107.26 33.10Q106.61 33.82 105.56 34.27Q104.51 34.73 102.96 34.73L102.96 34.73Q100.80 34.73 99.04 33.72Q97.28 32.71 96.23 30.64Q95.18 28.57 95.18 25.41L95.18 25.41Q95.18 22.18 96.25 20.01Q97.32 17.84 99.09 16.75Q100.86 15.65 102.97 15.65L102.97 15.65Q104.58 15.65 105.67 16.19Q106.77 16.73 107.44 17.54Q108.12 18.35 108.46 19.11L108.46 19.11L108.68 19.11L108.68 15.89L113.72 15.89L113.72 34.85Q113.72 37.43 112.54 39.14Q111.35 40.86 109.26 41.71Q107.18 42.55 104.46 42.55ZM104.56 30.83L104.56 30.83Q105.88 30.83 106.79 30.18Q107.71 29.53 108.19 28.31Q108.67 27.09 108.67 25.38L108.67 25.38Q108.67 23.69 108.19 22.42Q107.71 21.16 106.79 20.46Q105.88 19.76 104.56 19.76L104.56 19.76Q103.21 19.76 102.30 20.48Q101.39 21.21 100.92 22.47Q100.45 23.74 100.45 25.38L100.45 25.38Q100.45 27.05 100.92 28.28Q101.39 29.50 102.31 30.16Q103.23 30.83 104.56 30.83ZM120.95 23.94L120.95 23.94L120.95 35L115.82 35L115.82 9.54L120.85 9.54L120.85 20.66L120.44 20.66Q121.19 18.27 122.72 16.96Q124.25 15.65 126.68 15.65L126.68 15.65Q128.66 15.65 130.14 16.52Q131.62 17.38 132.43 19.00Q133.24 20.61 133.24 22.85L133.24 22.85L133.24 35L128.11 35L128.11 23.74Q128.11 21.96 127.20 20.95Q126.28 19.94 124.66 19.94L124.66 19.94Q123.58 19.94 122.74 20.41Q121.89 20.88 121.42 21.77Q120.95 22.66 120.95 23.94ZM133.49 15.89L144.82 15.89L144.82 19.81L133.49 19.81L133.49 15.89ZM136.12 29.86L136.12 11.35L141.25 11.35L141.25 29.41Q141.25 30.32 141.65 30.75Q142.05 31.19 142.99 31.19L142.99 31.19Q143.29 31.19 143.82 31.11Q144.35 31.04 144.62 30.97L144.62 30.97L145.35 34.81Q144.50 35.07 143.65 35.17Q142.81 35.27 142.04 35.27L142.04 35.27Q139.17 35.27 137.65 33.87Q136.12 32.47 136.12 29.86L136.12 29.86Z"/></g>
          
        </svg>
      