
          <svg data-logo="logo" xmlns="http://www.w3.org/2000/svg" viewBox="0 0 188 43">
            <g id="logogram" transform="translate(0, 1.5) rotate(0)"><path fill-rule="evenodd" clip-rule="evenodd" d="M0 15V31H5C5.52527 31 6.04541 31.1035 6.53076 31.3045C7.01599 31.5055 7.45703 31.8001 7.82837 32.1716C8.19983 32.543 8.49451 32.984 8.69556 33.4693C8.89648 33.9546 9 34.4747 9 35V40H21L36 25V9H31C30.4747 9 29.9546 8.89655 29.4692 8.69553C28.984 8.49451 28.543 8.19986 28.1716 7.82843C27.8002 7.457 27.5055 7.01602 27.3044 6.53073C27.1035 6.04544 27 5.5253 27 5V0H15L0 15ZM17 30H10V19L19 10H26V21L17 30Z" fill="#0004E8"/></g>
            <g id="logotype" transform="translate(42, 1)"><path fill="#000000" d="M16.85 33.42L16.85 33.42Q14.19 33.42 12.11 32.51Q10.03 31.60 8.82 29.85Q7.61 28.10 7.58 25.61L7.58 25.61L12.58 25.61Q12.62 26.70 13.14 27.57Q13.67 28.45 14.59 28.96Q15.52 29.46 16.82 29.46L16.82 29.46Q17.94 29.46 18.76 29.10Q19.58 28.73 20.04 28.06Q20.49 27.40 20.49 26.49L20.49 26.49Q20.49 25.44 19.98 24.74Q19.48 24.04 18.58 23.55Q17.69 23.06 16.52 22.66Q15.35 22.25 14.05 21.80L14.05 21.80Q11.14 20.85 9.62 19.28Q8.10 17.70 8.10 15.11L8.10 15.11Q8.10 12.91 9.17 11.33Q10.23 9.76 12.13 8.92Q14.02 8.08 16.43 8.08L16.43 8.08Q18.91 8.08 20.79 8.94Q22.66 9.79 23.76 11.40Q24.87 13.01 24.90 15.18L24.90 15.18L19.86 15.18Q19.83 14.38 19.39 13.66Q18.95 12.94 18.18 12.51Q17.41 12.07 16.36 12.07L16.36 12.07Q15.45 12.03 14.70 12.35Q13.95 12.66 13.51 13.28Q13.07 13.89 13.07 14.80L13.07 14.80Q13.07 15.67 13.51 16.27Q13.95 16.86 14.72 17.30Q15.49 17.74 16.54 18.11Q17.59 18.47 18.81 18.86L18.81 18.86Q20.63 19.49 22.17 20.35Q23.71 21.20 24.62 22.57Q25.53 23.93 25.53 26.17L25.53 26.17Q25.53 28.10 24.52 29.75Q23.50 31.39 21.59 32.41Q19.69 33.42 16.85 33.42ZM34.17 33.42L34.17 33.42Q32.04 33.42 30.52 32.53Q29.00 31.63 28.19 29.90Q27.39 28.17 27.39 25.61L27.39 25.61L27.39 15.36L32.11 15.36L32.11 25.13Q32.11 27.26 33.00 28.34Q33.90 29.43 35.75 29.43L35.75 29.43Q36.94 29.43 37.85 28.89Q38.76 28.34 39.30 27.31Q39.84 26.28 39.84 24.77L39.84 24.77L39.84 15.36L44.54 15.36L44.54 33L40.41 33L40.02 30.13L40.02 30.13Q39.25 31.63 37.75 32.53Q36.24 33.42 34.17 33.42ZM57.73 33.42L57.73 33.42Q56.37 33.42 55.30 33.07Q54.23 32.72 53.41 32.11Q52.59 31.50 52.03 30.73L52.03 30.73L52.03 30.73L51.50 33L47.30 33L47.30 7.80L52.03 7.80L52.03 17.81Q52.87 16.58 54.25 15.76Q55.63 14.94 57.70 14.94L57.70 14.94Q60.15 14.94 62.05 16.15Q63.96 17.35 65.06 19.44Q66.17 21.52 66.17 24.21L66.17 24.21Q66.17 26.84 65.06 28.94Q63.96 31.04 62.07 32.23Q60.18 33.42 57.73 33.42ZM56.61 29.29L56.61 29.29Q58.01 29.29 59.08 28.64Q60.15 27.99 60.74 26.86Q61.34 25.72 61.34 24.21L61.34 24.21Q61.34 22.71 60.74 21.54Q60.15 20.36 59.08 19.72Q58.01 19.07 56.61 19.07L56.61 19.07Q55.25 19.07 54.18 19.72Q53.11 20.36 52.50 21.52Q51.89 22.67 51.89 24.18L51.89 24.18Q51.89 25.68 52.50 26.86Q53.11 28.03 54.18 28.66Q55.25 29.29 56.61 29.29ZM76.91 33.42L76.91 33.42Q74.25 33.42 72.17 32.51Q70.09 31.60 68.88 29.85Q67.67 28.10 67.64 25.61L67.64 25.61L72.64 25.61Q72.67 26.70 73.20 27.57Q73.73 28.45 74.65 28.96Q75.58 29.46 76.88 29.46L76.88 29.46Q78.00 29.46 78.82 29.10Q79.64 28.73 80.09 28.06Q80.55 27.40 80.55 26.49L80.55 26.49Q80.55 25.44 80.04 24.74Q79.53 24.04 78.64 23.55Q77.75 23.06 76.58 22.66Q75.41 22.25 74.11 21.80L74.11 21.80Q71.20 20.85 69.68 19.28Q68.16 17.70 68.16 15.11L68.16 15.11Q68.16 12.91 69.23 11.33Q70.30 9.76 72.19 8.92Q74.08 8.08 76.49 8.08L76.49 8.08Q78.98 8.08 80.85 8.94Q82.72 9.79 83.82 11.40Q84.93 13.01 84.96 15.18L84.96 15.18L79.92 15.18Q79.89 14.38 79.45 13.66Q79.01 12.94 78.24 12.51Q77.47 12.07 76.42 12.07L76.42 12.07Q75.51 12.03 74.76 12.35Q74.01 12.66 73.57 13.28Q73.13 13.89 73.13 14.80L73.13 14.80Q73.13 15.67 73.57 16.27Q74.01 16.86 74.78 17.30Q75.55 17.74 76.59 18.11Q77.65 18.47 78.87 18.86L78.87 18.86Q80.69 19.49 82.23 20.35Q83.77 21.20 84.68 22.57Q85.59 23.93 85.59 26.17L85.59 26.17Q85.59 28.10 84.58 29.75Q83.56 31.39 81.65 32.41Q79.75 33.42 76.91 33.42ZM92.48 33L87.76 33L87.76 15.36L92.48 15.36L92.48 33ZM90.14 12.94L90.14 12.94Q88.88 12.94 88.06 12.19Q87.23 11.44 87.23 10.28L87.23 10.28Q87.23 9.13 88.06 8.38Q88.88 7.62 90.14 7.62L90.14 7.62Q91.44 7.62 92.26 8.38Q93.08 9.13 93.08 10.28L93.08 10.28Q93.08 11.44 92.26 12.19Q91.44 12.94 90.14 12.94ZM102.98 41.12L102.98 41.12Q100.47 41.12 98.58 40.51Q96.69 39.90 95.65 38.65Q94.62 37.41 94.62 35.59L94.62 35.59Q94.62 34.37 95.25 33.28Q95.88 32.20 97.09 31.30Q98.30 30.41 100.11 29.78L100.11 29.78L101.90 32.09Q100.29 32.62 99.57 33.40Q98.86 34.19 98.86 35.10L98.86 35.10Q98.86 35.91 99.40 36.47Q99.94 37.02 100.87 37.29Q101.80 37.55 102.95 37.55L102.95 37.55Q104.07 37.55 104.89 37.27Q105.72 36.99 106.19 36.45Q106.66 35.91 106.66 35.17L106.66 35.17Q106.66 34.23 106.00 33.63Q105.33 33.03 103.33 32.90L103.33 32.90Q101.55 32.76 100.17 32.49Q98.78 32.23 97.73 31.86Q96.69 31.50 95.97 31.04Q95.25 30.59 94.80 30.13L94.80 30.13L94.80 29.32L98.54 25.30L101.94 26.38L97.53 30.73L98.86 28.41Q99.24 28.63 99.61 28.82Q99.97 29.01 100.53 29.17Q101.09 29.32 102.00 29.46Q102.91 29.61 104.31 29.71L104.31 29.71Q106.63 29.92 108.11 30.59Q109.60 31.25 110.30 32.35Q111 33.45 111 35.06L111 35.06Q111 36.64 110.14 38.02Q109.28 39.41 107.50 40.26Q105.72 41.12 102.98 41.12ZM102.98 27.79L102.98 27.79Q100.78 27.79 99.19 26.93Q97.59 26.07 96.74 24.62Q95.88 23.16 95.88 21.38L95.88 21.38Q95.88 19.59 96.74 18.14Q97.59 16.69 99.19 15.81Q100.78 14.94 102.98 14.94L102.98 14.94Q105.22 14.94 106.82 15.81Q108.41 16.69 109.25 18.14Q110.09 19.59 110.09 21.38L110.09 21.38Q110.09 23.16 109.25 24.62Q108.41 26.07 106.82 26.93Q105.22 27.79 102.98 27.79ZM102.98 24.18L102.98 24.18Q104.35 24.18 105.19 23.48Q106.03 22.78 106.03 21.41L106.03 21.41Q106.03 20.05 105.19 19.33Q104.35 18.61 102.98 18.61L102.98 18.61Q101.66 18.61 100.80 19.33Q99.94 20.05 99.94 21.41L99.94 21.41Q99.94 22.78 100.80 23.48Q101.66 24.18 102.98 24.18ZM112.40 18.16L105.92 18.72L105.16 15.36L112.40 15.36L112.40 18.16ZM119.12 33L114.39 33L114.39 7.80L119.12 7.80L119.12 17.98L119.12 17.98Q119.99 16.62 121.45 15.78Q122.90 14.94 124.82 14.94L124.82 14.94Q127.03 14.94 128.53 15.87Q130.04 16.79 130.81 18.54Q131.58 20.29 131.58 22.88L131.58 22.88L131.58 33L126.89 33L126.89 23.30Q126.89 21.20 126.02 20.07Q125.14 18.93 123.25 18.93L123.25 18.93Q122.09 18.93 121.15 19.49Q120.20 20.05 119.66 21.12Q119.12 22.18 119.12 23.66L119.12 23.66L119.12 33ZM145.30 33L142.12 33Q140.26 33 138.88 32.42Q137.50 31.84 136.73 30.50Q135.96 29.15 135.96 26.80L135.96 26.80L135.96 19.31L132.95 19.31L132.95 15.36L135.96 15.36L136.48 10.56L140.68 10.56L140.68 15.36L145.34 15.36L145.34 19.31L140.68 19.31L140.68 26.88Q140.68 28.06 141.21 28.52Q141.73 28.98 142.99 28.98L142.99 28.98L145.30 28.98L145.30 33Z"/></g>
            
          </svg>
        